<?xml version="1.0"?>
<svg width="64" height="64" xmlns="http://www.w3.org/2000/svg" xmlns:svg="http://www.w3.org/2000/svg">
 <g class="layer">
  <title>Layer 1</title>
  <path d="m22.6066,21.3934c-0.3905,-0.3905 -1.0237,-0.3905 -1.4142,0c-0.3905,0.3905 -0.3905,1.0237 0,1.4142l1.4142,-1.4142zm18.3848,21.2132c0.3905,0.3905 1.0237,0.3905 1.4142,0c0.3905,-0.3905 0.3905,-1.0237 0,-1.4142l-1.4142,1.4142zm-19.799,-1.4142c-0.3905,0.3905 -0.3905,1.0237 0,1.4142c0.3905,0.3905 1.0237,0.3905 1.4142,0l-1.4142,-1.4142zm21.2132,-18.3848c0.3905,-0.3905 0.3905,-1.0237 0,-1.4142c-0.3905,-0.3905 -1.0237,-0.3905 -1.4142,0l1.4142,1.4142zm-21.2132,0l19.799,19.799l1.4142,-1.4142l-19.799,-19.799l-1.4142,1.4142zm1.4142,19.799l19.799,-19.799l-1.4142,-1.4142l-19.799,19.799l1.4142,1.4142z" fill="black" id="svg_1" transform="rotate(45 31.799 32)"/>
 </g>
</svg>